<?xml version="1.0"?>
<svg xmlns="http://www.w3.org/2000/svg" xmlns:rdf="http://www.w3.org/1999/02/22-rdf-syntax-ns#" xmlns:cc="http://creativecommons.org/ns#" xmlns:dc="http://purl.org/dc/elements/1.1/" version="1.0" height="256" width="256"><title>OpenStreetMap role element icon</title><metadata><rdf:RDF><cc:Work rdf:about=""><dc:format>image/svg+xml</dc:format><dc:type rdf:resource="http://purl.org/dc/dcmitype/StillImage"/><dc:title>OpenStreetMap role element icon</dc:title><cc:license rdf:resource="http://creativecommons.org/licenses/by/3.0/"/><dc:date>2014-03-10</dc:date><dc:creator><cc:Agent><dc:title>https://wiki.openstreetmap.org/wiki/User:Moresby</dc:title></cc:Agent></dc:creator></cc:Work><cc:License rdf:about="http://creativecommons.org/licenses/by/3.0/"><cc:permits rdf:resource="http://creativecommons.org/ns#Reproduction"/><cc:permits rdf:resource="http://creativecommons.org/ns#Distribution"/><cc:requires rdf:resource="http://creativecommons.org/ns#Notice"/><cc:requires rdf:resource="http://creativecommons.org/ns#Attribution"/><cc:permits rdf:resource="http://creativecommons.org/ns#DerivativeWorks"/><cc:requires rdf:resource="http://creativecommons.org/ns#ShareAlike"/></cc:License></rdf:RDF></metadata><g><rect width="242" height="242" stroke="none" fill="white" ry="32" x="7" y="7"/><g><clipPath id="role_clip"><path d="M 0 0 L 256 0 L 256 256 L 0 256 z M 037 072 A 035 035 0 0 0 107 072 A 035 035 0 0 0 037 072 M 115 196 A 027 027 0 0 0 169 196 A 027 027 0 0 0 115 196"/></clipPath><path d="M 068 068 L 142 196" stroke-width="16" stroke="#ccc" clip-path="url(#role_clip)"/><circle cx="072" cy="072" r="032" fill="none" stroke="black" stroke-dasharray="20 10" stroke-width="8"/><circle cx="142" cy="196" r="024" fill="none" stroke="black" stroke-dasharray="20 10" stroke-width="8"/></g><rect width="242" height="242" stroke="black" fill="none" stroke-width="12" ry="32" x="7" y="7"/></g></svg>
